2014014_C4_04_grf
inDegrees=no
nColumns=19
nRows=71
DataType=double
version=3
OpenSimVersion=4.5-2023-11-26-efcdfd3eb
endheader
time	ground_force_1_vx	ground_force_1_vy	ground_force_1_vz	ground_force_1_px	ground_force_1_py	ground_force_1_pz	ground_force_1_mx	ground_force_1_my	ground_force_1_mz	ground_force_2_vx	ground_force_2_vy	ground_force_2_vz	ground_force_2_px	ground_force_2_py	ground_force_2_pz	ground_force_2_mx	ground_force_2_my	ground_force_2_mz
0.89	0	0	0	0	0	-0.06861266805516421	0	0	0	-22.30674587	774.32788908	0	0.85433708	-0.002	0.1088863857955963	-0	2.32878927	0
0.891	0	0	0	0	0	-0.06861266805516421	0	0	0	-21.98131848	772.78979123	0	0.85479891	-0.002	0.1088863857955963	-0	2.35362755	0
0.892	0	0	0	0	0	-0.06861266805516421	0	0	0	-21.65800519	771.27978206	0	0.85526199	-0.002	0.1088863857955963	-0	2.37843324	0
0.893	0	0	0	0	0	-0.06861266805516421	0	0	0	-21.33726515	769.80538666	0	0.85572654	-0.002	0.1088863857955963	-0	2.40316808	0
0.894	0	0	0	0	0	-0.06861266805516421	0	0	0	-21.01852559	768.35989952	0	0.85619218	-0.002	0.1088863857955963	0	2.42782412	0
0.895	0	0	0	0	0	-0.06861266805516421	0	0	0	-20.70221864	766.95106924	0	0.85665914	-0.002	0.1088863857955963	0	2.45235339	0
0.896	0	0	0	0	0	-0.06861266805516421	0	0	0	-20.38781345	765.57204127	0	0.85712707	-0.002	0.1088863857955963	0	2.47676187	0
0.897	0	0	0	0	0	-0.06861266805516421	0	0	0	-20.07573843	764.23097402	0	0.85759614	-0.002	0.1088863857955963	0	2.50099642	0
0.898	0	0	0	0	0	-0.06861266805516421	0	0	0	-19.76550184	762.92075217	0	0.85806609	-0.002	0.1088863857955963	-0	2.52507697	0
0.899	0	0	0	0	0	-0.06861266805516421	0	0	0	-19.45753582	761.64960861	0	0.85853707	-0.002	0.1088863857955963	0	2.54894355	0
0.9	0	0	0	0	0	-0.06861266805516421	0	0	0	-19.15136725	760.41020453	0	0.8590088299999999	-0.002	0.1088863857955963	0	2.57262296	0
0.901	0	0	0	0	0	-0.06861266805516421	0	0	0	-18.84743199	759.2109963299999	0	0.85948152	-0.002	0.1088863857955963	0	2.59604937	0
0.902	0	0	0	0	0	-0.06861266805516421	0	0	0	-18.54527369	758.04434717	0	0.85995491	-0.002	0.1088863857955963	0	2.61925825	0
0.903	0	0	0	0	0	-0.06861266805516421	0	0	0	-18.24533008	756.91882521	0	0.86042909	-0.002	0.1088863857955963	0	2.64217879	0
0.904	0	0	0	0	0	-0.06861266805516421	0	0	0	-17.94715784	755.82645833	0	0.86090392	-0.002	0.1088863857955963	0	2.66485371	0
0.905	0	0	0	0	0	-0.06861266805516421	0	0	0	-17.65119191	754.77603823	0	0.86137948	-0.002	0.1088863857955963	-0	2.68720486	0
0.906	0	0	0	0	0	-0.06861266805516421	0	0	0	-17.35698991	753.75936925	0	0.8618556000000001	-0.002	0.1088863857955963	-0	2.70928567	0
0.907	0	0	0	0	0	-0.06861266805516421	0	0	0	-17.06498489	752.78524309	0	0.8623323899999999	-0.002	0.1088863857955963	0	2.73101757	0
0.908	0	0	0	0	0	-0.06861266805516421	0	0	0	-16.77473634	751.8453896	0	0.8628097	-0.002	0.1088863857955963	0	2.75246359	0
0.909	0	0	0	0	0	-0.06861266805516421	0	0	0	-16.48666803	750.9487867399999	0	0.86328762	-0.002	0.1088863857955963	0	2.7735441	0
0.91	0	0	0	0	0	-0.06861266805516421	0	0	0	-16.2003357	750.08705258	0	0.863766	-0.002	0.1088863857955963	0	2.79432629	0
0.911	0	0	0	0	0	-0.06861266805516421	0	0	0	-15.91616124	749.26912785	0	0.86424492	-0.002	0.1088863857955963	0	2.81473138	0
0.912	0	0	0	0	0	-0.06861266805516421	0	0	0	-15.633706	748.48666787	0	0.86472424	-0.002	0.1088863857955963	0	2.83483289	0
0.913	0	0	0	0	0	-0.06861266805516421	0	0	0	-15.35339514	747.74868786	0	0.86520401	-0.002	0.1088863857955963	0	2.85455596	0
0.914	0	0	0	0	0	-0.06861266805516421	0	0	0	-15.07480349	747.04654515	0	0.8656841	-0.002	0.1088863857955963	-0	2.87397904	0
0.915	0	0	0	0	0	-0.06861266805516421	0	0	0	-14.79836926	746.3895529500001	0	0.86616452	-0.002	0.1088863857955963	0	2.89303363	0
0.916	0	0	0	0	0	-0.06861266805516421	0	0	0	-14.52366542	745.76899409	0	0.86664516	-0.002	0.1088863857955963	-0	2.91179843	0
0.917	0	0	0	0	0	-0.06861266805516421	0	0	0	-14.25112411	745.19433081	0	0.86712596	-0.002	0.1088863857955963	0	2.93021027	0
0.918	0	0	0	0	0	-0.06861266805516421	0	0	0	-13.98030203	744.6565479	0	0.86760687	-0.002	0.1088863857955963	0	2.94834715	0
0.919	0	0	0	0	0	-0.06861266805516421	0	0	0	-13.71160103	744.16521937	0	0.8680878	-0.002	0.1088863857955963	0	2.96615111	0
0.92	0	0	0	0	0	-0.06861266805516421	0	0	0	-13.44456803	743.71114373	0	0.86856871	-0.002	0.1088863857955963	0	2.98369724	0
0.921	0	0	0	0	0	-0.06861266805516421	0	0	0	-13.17958347	743.3039695	0	0.86904951	-0.002	0.1088863857955963	-0	3.0009346	0
0.922	0	0	0	0	0	-0.06861266805516421	0	0	0	-12.91620918	742.9343462	0	0.86953018	-0.002	0.1088863857955963	0	3.01793684	0
0.923	0	0	0	0	0	-0.06861266805516421	0	0	0	-12.65480649	742.61173606	0	0.87001066	-0.002	0.1088863857955963	-0	3.03465774	0
0.924	0	0	0	0	0	-0.06861266805516421	0	0	0	-12.39494048	742.32682586	0	0.87049093	-0.002	0.1088863857955963	0	3.05116235	0
0.925	0	0	0	0	0	-0.06861266805516421	0	0	0	-12.13694783	742.08900332	0	0.8709709	-0.002	0.1088863857955963	0	3.06740906	0
0.926	0	0	0	0	0	-0.06861266805516421	0	0	0	-11.88041735	741.88880622	0	0.8714506	-0.002	0.1088863857955963	0	3.08345902	0
0.927	0	0	0	0	0	-0.06861266805516421	0	0	0	-11.62567968	741.73558503	0	0.87192991	-0.002	0.1088863857955963	-0	3.09928161	0
0.928	0	0	0	0	0	-0.06861266805516421	0	0	0	-11.37235295	741.61991477	0	0.87240886	-0.002	0.1088863857955963	0	3.11493741	0
0.929	0	0	0	0	0	-0.06861266805516421	0	0	0	-11.12077013	741.5511831600001	0	0.87288733	-0.002	0.1088863857955963	0	3.13040686	0
0.93	0	0	0	0	0	-0.06861266805516421	0	0	0	-10.87056752	741.51992798	0	0.87336536	-0.002	0.1088863857955963	0	3.14574421	0
0.931	0	0	0	0	0	-0.06861266805516421	0	0	0	-10.62206877	741.5354624399999	0	0.87384282	-0.002	0.1088863857955963	0	3.16093812	0
0.9320000000000001	0	0	0	0	0	-0.06861266805516421	0	0	0	-10.37490554	741.5883988099999	0	0.87431978	-0.002	0.1088863857955963	0	3.17603209	0
0.9330000000000001	0	0	0	0	0	-0.06861266805516421	0	0	0	-10.12936374	741.68797582	0	0.87479606	-0.002	0.1088863857955963	0	3.19101894	0
0.9340000000000001	0	0	0	0	0	-0.06861266805516421	0	0	0	-9.88507085	741.82465672	0	0.87527179	-0.002	0.1088863857955963	0	3.20593085	0
0.9350000000000001	0	0	0	0	0	-0.06861266805516421	0	0	0	-9.642280639999999	742.00756848	0	0.87574675	-0.002	0.1088863857955963	0	3.22076456	0
0.9360000000000001	0	0	0	0	0	-0.06861266805516421	0	0	0	-9.40064155	742.2272861	0	0.87622108	-0.002	0.1088863857955963	0	3.23554392	0
0.9370000000000001	0	0	0	0	0	-0.06861266805516421	0	0	0	-9.16037848	742.49260128	0	0.8766945900000001	-0.002	0.1088863857955963	-0	3.25026524	0
0.9379999999999999	0	0	0	0	0	-0.06861266805516421	0	0	0	-8.921168740000001	742.79427528	0	0.87716737	-0.002	0.1088863857955963	0	3.26494618	0
0.9389999999999999	0	0	0	0	0	-0.06861266805516421	0	0	0	-8.683218159999999	743.14109981	0	0.87763919	-0.002	0.1088863857955963	0	3.27958341	0
0.9399999999999999	0	0	0	0	0	-0.06861266805516421	0	0	0	-8.44623148	743.52376163	0	0.8781102	-0.002	0.1088863857955963	0	3.29419334	0
0.9409999999999999	0	0	0	0	0	-0.06861266805516421	0	0	0	-8.210392669999999	743.95094067	0	0.87858011	-0.002	0.1088863857955963	0	3.30877568	0
0.9419999999999999	0	0	0	0	0	-0.06861266805516421	0	0	0	-7.97542557	744.41343546	0	0.87904911	-0.002	0.1088863857955963	0	3.32334274	0
0.9429999999999999	0	0	0	0	0	-0.06861266805516421	0	0	0	-7.74148875	744.91970241	0	0.87951694	-0.002	0.1088863857955963	0	3.33789768	0
0.944	0	0	0	0	0	-0.06861266805516421	0	0	0	-7.50833238	745.4606890699999	0	0.87998378	-0.002	0.1088863857955963	0	3.35245446	0
0.945	0	0	0	0	0	-0.06861266805516421	0	0	0	-7.27609359	746.04451656	0	0.88044935	-0.002	0.1088863857955963	0	3.36702383	0
0.946	0	0	0	0	0	-0.06861266805516421	0	0	0	-7.04453839	746.66231871	0	0.88091386	-0.002	0.1088863857955963	0	3.3816111	0
0.947	0	0	0	0	0	-0.06861266805516421	0	0	0	-6.81377342	747.3218441	0	0.88137701	-0.002	0.1088863857955963	0	3.39622527	0
0.948	0	0	0	0	0	-0.06861266805516421	0	0	0	-6.58359705	748.01437557	0	0.88183901	-0.002	0.1088863857955963	0	3.41086205	0
0.949	0	0	0	0	0	-0.06861266805516421	0	0	0	-6.35411008	748.7472519299999	0	0.88229956	-0.002	0.1088863857955963	0	3.42552892	0
0.95	0	0	0	0	0	-0.06861266805516421	0	0	0	-6.12514187	749.51186776	0	0.88275892	-0.002	0.1088863857955963	-0	3.4402198	0
0.951	0	0	0	0	0	-0.06861266805516421	0	0	0	-5.89678087	750.31530112	0	0.88321678	-0.002	0.1088863857955963	0	3.45494269	0
0.952	0	0	0	0	0	-0.06861266805516421	0	0	0	-5.66887343	751.14898384	0	0.88367343	-0.002	0.1088863857955963	0	3.46969113	0
0.953	0	0	0	0	0	-0.06861266805516421	0	0	0	-5.44149103	752.01973319	0	0.88412854	-0.002	0.1088863857955963	0	3.48447556	0
0.954	0	0	0	0	0	-0.06861266805516421	0	0	0	-5.21449232	752.9193908	0	0.88458242	-0.002	0.1088863857955963	0	3.49928985	0
0.955	0	0	0	0	0	-0.06861266805516421	0	0	0	-4.98792063	753.8542896500001	0	0.88503477	-0.002	0.1088863857955963	0	3.51414059	0
0.956	0	0	0	0	0	-0.06861266805516421	0	0	0	-4.76164836	754.81668115	0	0.8854859	-0.002	0.1088863857955963	-0	3.52901857	0
0.957	0	0	0	0	0	-0.06861266805516421	0	0	0	-4.53570439	755.81252575	0	0.88593551	-0.002	0.1088863857955963	-0	3.54392448	0
0.958	0	0	0	0	0	-0.06861266805516421	0	0	0	-4.30998998	756.83437288	0	0.88638389	-0.002	0.1088863857955963	0	3.55884683	0
0.959	0	0	0	0	0	-0.06861266805516421	0	0	0	-4.08452284	757.88781047	0	0.88683074	-0.002	0.1088863857955963	-0	3.57378087	0
0.96	0	0	0	0	0	-0.06861266805516421	0	0	0	-3.85921798	758.96576047	0	0.88727636	-0.002	0.1088863857955963	0	3.588716	0
